<svg xmlns="http://www.w3.org/2000/svg" version="1.1" xmlns:xlink="http://www.w3.org/1999/xlink" xmlns:svgjs="http://svgjs.dev/svgjs" width="1500" height="935" viewBox="0 0 1500 935"><g transform="matrix(1,0,0,1,-0.9090909090909918,0.3785425101214628)"><svg viewBox="0 0 396 247" data-background-color="#000000" preserveAspectRatio="xMidYMid meet" height="935" width="1500" xmlns="http://www.w3.org/2000/svg" xmlns:xlink="http://www.w3.org/1999/xlink"><g id="tight-bounds" transform="matrix(1,0,0,1,0.2400000000000091,-0.09999999999999432)"><svg viewBox="0 0 395.52 247.2" height="247.2" width="395.52"><rect width="395.52" height="247.2" fill="url(#20eb33cc-78de-4f20-a04a-01a895057e1b)" mask="url(#e8d24537-a3bb-4313-bd8a-10c8ad9b2d79)" data-fill-palette-color="tertiary"></rect><g><svg></svg></g><g><svg viewBox="0 0 395.52 247.2" height="247.2" width="395.52"><g transform="matrix(1,0,0,1,75.54432,48.65987614890885)"><svg viewBox="0 0 244.43135999999998 149.8802477021823" height="149.8802477021823" width="244.43135999999998"><g><svg viewBox="0 0 244.43135999999998 149.8802477021823" height="149.8802477021823" width="244.43135999999998"><g><svg viewBox="0 0 244.43135999999998 149.8802477021823" height="149.8802477021823" width="244.43135999999998"><g><svg viewBox="0 0 244.43135999999998 149.8802477021823" height="149.8802477021823" width="244.43135999999998"><g id="textblocktransform"><svg viewBox="0 0 244.43135999999998 149.8802477021823" height="149.8802477021823" width="244.43135999999998" id="textblock"><g><svg viewBox="0 0 244.43135999999998 149.8802477021823" height="149.8802477021823" width="244.43135999999998"><g transform="matrix(1,0,0,1,0,0)"><svg width="244.43135999999998" viewBox="2.43 -35.83 58.42 35.83" height="149.8802477021823" data-palette-color="url(#75e231a5-4f44-4b90-af0d-e82ccb070a5e)"></svg></g></svg></g></svg></g></svg></g></svg></g></svg></g></svg></g><g><path d="M245.816 0c68.262 0 123.6 55.338 123.6 123.6 0 68.262-55.338 123.6-123.6 123.6-31.383 0-60.035-11.697-81.834-30.968h10.611c19.716 15.182 44.415 24.21 71.223 24.21 64.53 0 116.842-52.312 116.841-116.842 0-64.53-52.312-116.842-116.841-116.842-26.808 0-51.507 9.028-71.223 24.21l-10.611 0c21.798-19.272 50.45-30.968 81.834-30.968z" fill="url(#20eb33cc-78de-4f20-a04a-01a895057e1b)" stroke="transparent" data-fill-palette-color="tertiary"></path></g></svg></g><defs></defs><mask id="09d23757-de51-4545-b6c9-81fecef35686"><g id="SvgjsG1261"><svg viewBox="0 0 395.52 247.2" height="247.2" width="395.52"><g><svg></svg></g><g><svg viewBox="0 0 395.52 247.2" height="247.2" width="395.52"><g transform="matrix(1,0,0,1,75.54432,48.65987614890885)"><svg viewBox="0 0 244.43135999999998 149.8802477021823" height="149.8802477021823" width="244.43135999999998"><g><svg viewBox="0 0 244.43135999999998 149.8802477021823" height="149.8802477021823" width="244.43135999999998"><g><svg viewBox="0 0 244.43135999999998 149.8802477021823" height="149.8802477021823" width="244.43135999999998"><g><svg viewBox="0 0 244.43135999999998 149.8802477021823" height="149.8802477021823" width="244.43135999999998"><g id="SvgjsG1260"><svg viewBox="0 0 244.43135999999998 149.8802477021823" height="149.8802477021823" width="244.43135999999998" id="SvgjsSvg1259"><g><svg viewBox="0 0 244.43135999999998 149.8802477021823" height="149.8802477021823" width="244.43135999999998"><g transform="matrix(1,0,0,1,0,0)"><svg width="244.43135999999998" viewBox="2.43 -35.83 58.42 35.83" height="149.8802477021823" data-palette-color="url(#75e231a5-4f44-4b90-af0d-e82ccb070a5e)"><path d="M27.23-35.83L26.75-32 11.08-32 9.58-19.93 22.28-19.93 21.8-16.25 9.13-16.25 7.6-3.8 23.33-3.8 22.85 0 2.43 0 6.85-35.83 27.23-35.83ZM38.8 0L29.77-35.83 33.5-35.83Q34.12-35.83 34.47-35.5 34.82-35.18 34.95-34.7L34.95-34.7 40.92-9.1Q41.12-8.3 41.31-7.34 41.5-6.38 41.62-5.33L41.62-5.33Q41.97-6.38 42.36-7.33 42.75-8.28 43.15-9.1L43.15-9.1 55.37-34.7Q55.57-35.1 56.03-35.46 56.5-35.83 57.1-35.83L57.1-35.83 60.85-35.83 43.02 0 38.8 0Z" opacity="1" transform="matrix(1,0,0,1,0,0)" fill="white" class="wordmark-text-0" id="SvgjsPath1258"></path></svg></g></svg></g></svg></g></svg></g></svg></g></svg></g></svg></g><g><path d="M245.816 0c68.262 0 123.6 55.338 123.6 123.6 0 68.262-55.338 123.6-123.6 123.6-31.383 0-60.035-11.697-81.834-30.968h10.611c19.716 15.182 44.415 24.21 71.223 24.21 64.53 0 116.842-52.312 116.841-116.842 0-64.53-52.312-116.842-116.841-116.842-26.808 0-51.507 9.028-71.223 24.21l-10.611 0c21.798-19.272 50.45-30.968 81.834-30.968z" fill="black" stroke="transparent"></path></g></svg></g><defs><mask></mask></defs></svg><rect width="395.52" height="247.2" fill="black" stroke="none" visibility="hidden"></rect></g></mask><linearGradient x1="0" x2="1" y1="0.578" y2="0.595" id="75e231a5-4f44-4b90-af0d-e82ccb070a5e"><stop stop-color="#6ee2f5" offset="0"></stop><stop stop-color="#6454f0" offset="1"></stop></linearGradient><rect width="395.52" height="247.2" fill="url(#75e231a5-4f44-4b90-af0d-e82ccb070a5e)" mask="url(#09d23757-de51-4545-b6c9-81fecef35686)" data-fill-palette-color="primary"></rect><mask id="e8d24537-a3bb-4313-bd8a-10c8ad9b2d79"><g id="SvgjsG1284"><svg viewBox="0 0 395.52 247.2" height="247.2" width="395.52"><g><svg></svg></g><g><svg viewBox="0 0 395.52 247.2" height="247.2" width="395.52"><g transform="matrix(1,0,0,1,75.54432,48.65987614890885)"><svg viewBox="0 0 244.43135999999998 149.8802477021823" height="149.8802477021823" width="244.43135999999998"><g><svg viewBox="0 0 244.43135999999998 149.8802477021823" height="149.8802477021823" width="244.43135999999998"><g><svg viewBox="0 0 244.43135999999998 149.8802477021823" height="149.8802477021823" width="244.43135999999998"><g><svg viewBox="0 0 244.43135999999998 149.8802477021823" height="149.8802477021823" width="244.43135999999998"><g id="SvgjsG1283"><svg viewBox="0 0 244.43135999999998 149.8802477021823" height="149.8802477021823" width="244.43135999999998" id="SvgjsSvg1282"><g><svg viewBox="0 0 244.43135999999998 149.8802477021823" height="149.8802477021823" width="244.43135999999998"><g transform="matrix(1,0,0,1,0,0)"><svg width="244.43135999999998" viewBox="2.43 -35.83 58.42 35.83" height="149.8802477021823" data-palette-color="url(#75e231a5-4f44-4b90-af0d-e82ccb070a5e)"></svg></g></svg></g></svg></g></svg></g></svg></g></svg></g></svg></g><g><path d="M245.816 0c68.262 0 123.6 55.338 123.6 123.6 0 68.262-55.338 123.6-123.6 123.6-31.383 0-60.035-11.697-81.834-30.968h10.611c19.716 15.182 44.415 24.21 71.223 24.21 64.53 0 116.842-52.312 116.841-116.842 0-64.53-52.312-116.842-116.841-116.842-26.808 0-51.507 9.028-71.223 24.21l-10.611 0c21.798-19.272 50.45-30.968 81.834-30.968z" fill="white" stroke="transparent"></path></g></svg></g><defs><mask></mask></defs><mask><g id="SvgjsG1281"><svg viewBox="0 0 395.52 247.2" height="247.2" width="395.52"><g><svg></svg></g><g><svg viewBox="0 0 395.52 247.2" height="247.2" width="395.52"><g transform="matrix(1,0,0,1,75.54432,48.65987614890885)"><svg viewBox="0 0 244.43135999999998 149.8802477021823" height="149.8802477021823" width="244.43135999999998"><g><svg viewBox="0 0 244.43135999999998 149.8802477021823" height="149.8802477021823" width="244.43135999999998"><g><svg viewBox="0 0 244.43135999999998 149.8802477021823" height="149.8802477021823" width="244.43135999999998"><g><svg viewBox="0 0 244.43135999999998 149.8802477021823" height="149.8802477021823" width="244.43135999999998"><g id="SvgjsG1280"><svg viewBox="0 0 244.43135999999998 149.8802477021823" height="149.8802477021823" width="244.43135999999998" id="SvgjsSvg1279"><g><svg viewBox="0 0 244.43135999999998 149.8802477021823" height="149.8802477021823" width="244.43135999999998"><g transform="matrix(1,0,0,1,0,0)"><svg width="244.43135999999998" viewBox="2.43 -35.83 58.42 35.83" height="149.8802477021823" data-palette-color="url(#75e231a5-4f44-4b90-af0d-e82ccb070a5e)"><path d="M27.23-35.83L26.75-32 11.08-32 9.58-19.93 22.28-19.93 21.8-16.25 9.13-16.25 7.6-3.8 23.33-3.8 22.85 0 2.43 0 6.85-35.83 27.23-35.83ZM38.8 0L29.77-35.83 33.5-35.83Q34.12-35.83 34.47-35.5 34.82-35.18 34.95-34.7L34.95-34.7 40.92-9.1Q41.12-8.3 41.31-7.34 41.5-6.38 41.62-5.33L41.62-5.33Q41.97-6.38 42.36-7.33 42.75-8.28 43.15-9.1L43.15-9.1 55.37-34.7Q55.57-35.1 56.03-35.46 56.5-35.83 57.1-35.83L57.1-35.83 60.85-35.83 43.02 0 38.8 0Z" opacity="1" transform="matrix(1,0,0,1,0,0)" fill="black" class="wordmark-text-0" id="SvgjsPath1278"></path></svg></g></svg></g></svg></g></svg></g></svg></g></svg></g></svg></g><g><path d="M245.816 0c68.262 0 123.6 55.338 123.6 123.6 0 68.262-55.338 123.6-123.6 123.6-31.383 0-60.035-11.697-81.834-30.968h10.611c19.716 15.182 44.415 24.21 71.223 24.21 64.53 0 116.842-52.312 116.841-116.842 0-64.53-52.312-116.842-116.841-116.842-26.808 0-51.507 9.028-71.223 24.21l-10.611 0c21.798-19.272 50.45-30.968 81.834-30.968z" fill="black" stroke="transparent"></path></g></svg></g><defs><mask></mask></defs></svg><rect width="395.52" height="247.2" fill="black" stroke="none" visibility="hidden"></rect></g></mask></svg><rect width="395.52" height="247.2" fill="black" stroke="none" visibility="hidden"></rect></g></mask><linearGradient x1="0" x2="1" y1="0.578" y2="0.595" id="20eb33cc-78de-4f20-a04a-01a895057e1b"><stop stop-color="#6ee2f5" offset="0"></stop><stop stop-color="#6454f0" offset="1"></stop></linearGradient></svg><rect width="395.52" height="247.2" fill="none" stroke="none" visibility="hidden"></rect></g></svg></g></svg>